<svg width="1200" height="420" viewBox="0 0 1200 420" xmlns="http://www.w3.org/2000/svg">
  <defs>
    <linearGradient id="g1" x1="0%" y1="0%" x2="100%" y2="0%">
      <stop offset="0%" stop-color="#4d7cfe" stop-opacity="0.35">
        <animate attributeName="stop-color" values="#4d7cfe;#22c55e;#4d7cfe" dur="8s" repeatCount="indefinite" />
      </stop>
      <stop offset="100%" stop-color="#22c55e" stop-opacity="0.25">
        <animate attributeName="stop-color" values="#22c55e;#38bdf8;#22c55e" dur="8s" repeatCount="indefinite" />
      </stop>
    </linearGradient>
  </defs>
  <rect width="1200" height="420" fill="url(#g1)" />
  <circle cx="220" cy="120" r="160" fill="#4d7cfe" fill-opacity="0.18">
    <animate attributeName="cx" values="220;260;220" dur="10s" repeatCount="indefinite" />
  </circle>
  <circle cx="900" cy="260" r="200" fill="#22c55e" fill-opacity="0.12">
    <animate attributeName="cy" values="260;220;260" dur="10s" repeatCount="indefinite" />
  </circle>
  <circle cx="640" cy="120" r="120" fill="#38bdf8" fill-opacity="0.18">
    <animate attributeName="r" values="120;150;120" dur="9s" repeatCount="indefinite" />
  </circle>
  <circle cx="600" cy="210" r="150" fill="url(#g1)" fill-opacity="0.18" />
  <g opacity="0.55" stroke="url(#g1)" stroke-width="12" fill="none">
    <circle cx="600" cy="210" r="132" />
    <circle cx="502" cy="130" r="34" />
    <circle cx="698" cy="130" r="34" />
    <circle cx="558" cy="198" r="12" />
    <circle cx="642" cy="198" r="12" />
    <ellipse cx="600" cy="252" rx="56" ry="38" />
    <circle cx="578" cy="252" r="9" />
    <circle cx="622" cy="252" r="9" />
    <path d="M546 304h-40M654 304h40M578 334v26M622 334v26" stroke-linecap="round" />
    <path d="M740 210l34 12-22 30" stroke-linecap="round" stroke-linejoin="round" />
  </g>
</svg>
